<svg
    xmlns="http://www.w3.org/2000/svg"
    xmlnsXlink="http://www.w3.org/1999/xlink"
    x="0px"
    y="0px"
    width="100%"
    viewBox="0 0 512 512"
    enableBackground="new 0 0 512 512"
    xmlSpace="preserve"
  >
    <path d=" M13.267574,313.444061  C6.955527,288.271973 6.573620,262.966736 7.888231,237.770187  C9.287601,210.949097 15.801200,185.022400 26.361473,160.229599  C37.251999,134.661407 51.555389,111.305275 70.109100,90.447105  C89.311363,68.859825 111.440697,51.216812 136.609375,37.122608  C162.398132,22.681177 190.010864,13.713976 219.009705,8.852047  C238.623016,5.563688 258.551758,5.562838 278.219696,6.922006  C311.270630,9.206017 342.721588,18.496002 372.222046,33.689861  C390.127563,42.911869 406.648163,54.257282 421.913330,67.520668  C449.716278,91.677681 470.879852,120.704712 486.037415,154.096344  C495.880127,175.779434 502.111450,198.567902 505.500061,222.209122  C508.114563,240.449524 508.096863,258.779846 507.074402,276.966858  C505.550537,304.073425 498.985992,330.244507 488.341858,355.364624  C478.481781,378.634247 465.518066,399.989532 449.455566,419.401154  C438.749817,432.339172 426.721161,444.055847 413.485901,454.464050  C398.961090,465.886444 383.594666,476.035309 366.881989,483.947418  C343.253510,495.133667 318.592255,502.897034 292.585510,506.563812  C274.332001,509.137451 256.011139,509.045380 237.814926,508.107849  C209.629456,506.655579 182.710709,498.994202 156.733521,487.918579  C138.885162,480.308807 122.366295,470.393707 106.967896,458.811371  C85.773972,442.869751 67.542702,423.940430 52.436005,401.971191  C33.882553,374.989441 20.622868,345.781616 13.267574,313.444061  M229.651001,51.501488  C229.651001,45.764416 229.651001,40.027344 229.651001,34.230453  C146.695709,42.695072 60.291138,106.680771 37.782677,210.903290  C27.131048,260.224274 33.150143,308.192566 54.563431,353.912018  C63.546707,373.092163 74.907196,390.898315 89.709808,406.451447  C91.066635,405.341644 91.755112,404.869720 92.336235,404.290131  C119.937141,376.763885 147.496078,349.195374 175.167160,321.739868  C178.255508,318.675629 176.958588,316.937469 174.501419,314.490906  C148.173233,288.276794 122.021034,261.885101 95.572533,235.793518  C91.308609,231.587128 89.187103,227.733337 89.425949,221.386597  C90.077110,204.083542 89.756813,186.738907 89.577698,169.413269  C89.534691,165.253113 90.481621,163.247742 95.097084,163.576279  C100.070190,163.930283 105.101540,163.883362 110.082191,163.586731  C114.336258,163.333359 115.463188,165.071548 115.415215,169.092010  C115.236305,184.084793 115.458046,199.082443 115.269753,214.075012  C115.223740,217.738724 116.419220,220.300507 118.961052,222.827286  C143.536865,247.257385 168.010880,271.789886 192.543076,296.263916  C193.785706,297.503571 194.776611,299.217621 197.733704,299.446899  C206.818146,290.219910 216.170715,280.516235 225.785873,271.080139  C228.643677,268.275543 229.730957,265.400269 229.725098,261.430634  C229.622391,191.787552 229.650696,122.144257 229.651001,51.501488  M329.749176,203.249191  C313.608734,219.291550 297.468323,235.333923 281.438293,251.266541  C285.527405,256.893188 426.938049,397.951965 430.388550,400.057709  C502.767120,317.606567 497.173645,183.364883 424.460297,108.427277  C393.054108,139.872528 361.653259,171.312454 329.749176,203.249191  M298.712860,305.785797  C286.833862,294.001038 274.954865,282.216278 263.137909,270.493073  C254.071564,277.779144 127.889732,404.772705 126.320427,408.082733  C131.934448,409.113251 395.879761,408.854187 400.254211,407.636841  C366.421906,373.701141 332.817535,339.994019 298.712860,305.785797  M311.613129,185.146011  C343.402863,153.417725 375.192627,121.689453 407.228699,89.715340  C399.812012,83.280884 392.756500,77.644661 385.323212,72.374321  C363.544952,56.933159 339.771179,45.947273 313.970123,39.298409  C297.237671,34.986504 280.320129,32.074417 262.925598,32.255886  C255.357574,32.334843 255.350433,31.912899 255.350327,39.420765  C255.349426,104.047516 255.343323,168.674255 255.377533,233.300995  C255.378632,235.389130 254.842010,237.581039 256.331787,240.359619  C274.760345,221.952942 292.945465,203.789444 311.613129,185.146011  M212.500092,434.397003  C181.715469,434.397003 150.930832,434.397003 120.146210,434.397003  C211.737381,507.330414 329.670776,489.945343 395.513916,434.398132  C334.330231,434.398132 273.915161,434.398132 212.500092,434.397003  z" fill="#000000" />
  </svg>